<svg width="32" height="32" viewBox="0 0 32 32" fill="none" xmlns="http://www.w3.org/2000/svg">
<g clip-path="url(#clip0_63_492)">
<path d="M31.2227 14.1143L29.0402 11.9322C28.5222 11.4142 28.0977 10.3906 28.0977 9.65654V6.57054C28.0977 5.10254 26.8985 3.9033 25.4309 3.90252H22.3436C21.6104 3.90252 20.5856 3.47727 20.0676 2.95969L17.8855 0.777613C16.8487 -0.259204 15.1511 -0.259204 14.1143 0.777613L11.9322 2.96125C11.4137 3.47923 10.3878 3.9033 9.65613 3.9033H6.57014C5.10409 3.9033 3.90329 5.10254 3.90329 6.57054V9.65661C3.90329 10.3878 3.4789 11.4146 2.96085 11.9323L0.778382 14.1144C-0.259216 15.1512 -0.259216 16.8488 0.778382 17.8872L2.96085 20.0693C3.47922 20.5873 3.90329 21.6137 3.90329 22.345V25.4311C3.90329 26.8975 5.10409 28.0983 6.57014 28.0983H9.65621C10.3894 28.0983 11.4142 28.5227 11.9323 29.0404L14.1143 31.2232C15.1512 32.2592 16.8488 32.2592 17.8856 31.2232L20.0677 29.0404C20.5861 28.5224 21.6105 28.0983 22.3437 28.0983H25.431C26.8986 28.0983 28.0978 26.8975 28.0978 25.4311V22.345C28.0978 21.6106 28.5226 20.587 29.0403 20.0693L31.2227 17.8872C32.2587 16.8488 32.2587 15.1511 31.2227 14.1143ZM13.8831 22.0005L7.99938 16.116L9.88504 14.2307L13.8836 18.2292L22.1145 10.0002L23.9997 11.8855L13.8831 22.0005Z" fill="#C6DE16"/>
</g>
<defs>
<clipPath id="clip0_63_492">
<rect width="32" height="32" fill="white"/>
</clipPath>
</defs>
</svg>
